<svg width="1792" height="1792" xmlns="http://www.w3.org/2000/svg">

 <g>
  <title>background</title>
  <rect fill="none" id="canvas_background" height="402" width="582" y="-1" x="-1"/>
 </g>
 <g>
  <title>Layer 1</title>
  <path fill="#00ff00" id="svg_1" d="m813,1299l614,-614q19,-19 19,-45t-19,-45l-102,-102q-19,-19 -45,-19t-45,19l-467,467l-211,-211q-19,-19 -45,-19t-45,19l-102,102q-19,19 -19,45t19,45l358,358q19,19 45,19t45,-19zm851,-883l0,960q0,119 -84.5,203.5t-203.5,84.5l-960,0q-119,0 -203.5,-84.5t-84.5,-203.5l0,-960q0,-119 84.5,-203.5t203.5,-84.5l960,0q119,0 203.5,84.5t84.5,203.5z"/>
 </g>
</svg>