<svg width="32" height="32" xmlns="http://www.w3.org/2000/svg">

 <g>
  <title>background</title>
  <rect fill="none" id="canvas_background" height="402" width="582" y="-1" x="-1"/>
 </g>
 <g>
  <title>Layer 1</title>
  <path id="svg_1" fill="#666666" d="m30,0l-28,0c-1.105,0 -2,0.895 -2,2l0,28c0,1.105 0.895,2 2,2l28,0c1.104,0 2,-0.895 2,-2l0,-28c0,-1.105 -0.896,-2 -2,-2zm0,30l-28,0l0,-28l28,0l0,28z"/>
  <path id="svg_2" fill="#666666" d="m12.301,22.607c0.382,0.379 1.044,0.384 1.429,0l10.999,-10.899c0.394,-0.39 0.394,-1.024 0,-1.414c-0.394,-0.391 -1.034,-0.391 -1.428,0l-10.29,10.194l-4.281,-4.196c-0.394,-0.391 -1.034,-0.391 -1.428,0c-0.395,0.391 -0.395,1.024 0,1.414l4.999,4.901z"/>
 </g>
</svg>